<svg xmlns="http://www.w3.org/2000/svg" width="805" height="600"><rect width="805" height="600" x="0" y="0" fill="#FFFFFF" id="backgorund"/><g transform="translate(20,20)" id="viz"><g id="nodes"><g transform="translate(383.5,281)"><path id="p_943.5" d="M-5.143516556418883e-14,280A280,280,0,1,1,5.143516556418883e-14,-280A280,280,0,1,1,-5.143516556418883e-14,280Z" fill="none" stroke="#ccc"/></g><g transform="translate(262.6944513289909,275.7881702155695)" id="Consumer"><path id="p_694.5860731608025" d="M-2.88594358735248e-14,157.10345161624213A157.10345161624213,157.10345161624213,0,1,1,2.88594358735248e-14,-157.10345161624213A157.10345161624213,157.10345161624213,0,1,1,-2.88594358735248e-14,157.10345161624213Z" fill="#1f77b4" stroke="none"/></g><g transform="translate(541.6060122538469,275.7881702155695)" id="Corporate"><path id="p_936.22366497501" d="M-2.2012318829093854e-14,119.82948250559366A119.82948250559366,119.82948250559366,0,1,1,2.2012318829093854e-14,-119.82948250559366A119.82948250559366,119.82948250559366,0,1,1,-2.2012318829093854e-14,119.82948250559366Z" fill="#1f77b4" stroke="none"/></g><g transform="translate(433.2242417344909,460.1759309450356)" id="Home Office"><path id="p_984.4739337754356" d="M-1.6913675521734483e-14,92.07376109590913A92.07376109590913,92.07376109590913,0,1,1,1.6913675521734483e-14,-92.07376109590913A92.07376109590913,92.07376109590913,0,1,1,-1.6913675521734483e-14,92.07376109590913Z" fill="#1f77b4" stroke="none"/></g></g><g id="labels"><g transform="translate(262.6944513289909,275.7881702155695)"><text text-anchor="middle" dominant-baseline="text-before-edge" transform="translate(0,0)"/></g><g transform="translate(541.6060122538469,275.7881702155695)"><text text-anchor="middle" dominant-baseline="text-before-edge" transform="translate(0,0)"/></g><g transform="translate(433.2242417344909,460.1759309450356)"><text text-anchor="middle" dominant-baseline="text-before-edge" transform="translate(0,0)"/></g></g></g></svg>